<svg width="70" height="70" viewBox="0 0 70 70" fill="none" xmlns="http://www.w3.org/2000/svg">
<path fill-rule="evenodd" clip-rule="evenodd" d="M46.6668 26.2497C46.6668 29.3439 45.4377 32.3113 43.2497 34.4993C41.0618 36.6872 38.0944 37.9163 35.0002 37.9163C31.906 37.9163 28.9385 36.6872 26.7506 34.4993C24.5627 32.3113 23.3335 29.3439 23.3335 26.2497C23.3335 23.1555 24.5627 20.188 26.7506 18.0001C28.9385 15.8122 31.906 14.583 35.0002 14.583C38.0944 14.583 41.0618 15.8122 43.2497 18.0001C45.4377 20.188 46.6668 23.1555 46.6668 26.2497ZM40.8335 26.2497C40.8335 27.7968 40.2189 29.2805 39.125 30.3745C38.031 31.4684 36.5473 32.083 35.0002 32.083C33.4531 32.083 31.9693 31.4684 30.8754 30.3745C29.7814 29.2805 29.1668 27.7968 29.1668 26.2497C29.1668 24.7026 29.7814 23.2188 30.8754 22.1249C31.9693 21.0309 33.4531 20.4163 35.0002 20.4163C36.5473 20.4163 38.031 21.0309 39.125 22.1249C40.2189 23.2188 40.8335 24.7026 40.8335 26.2497Z" fill="#0D6B68"/>
<path fill-rule="evenodd" clip-rule="evenodd" d="M35.0001 2.9165C17.2813 2.9165 2.91675 17.2811 2.91675 34.9998C2.91675 52.7186 17.2813 67.0832 35.0001 67.0832C52.7188 67.0832 67.0834 52.7186 67.0834 34.9998C67.0834 17.2811 52.7188 2.9165 35.0001 2.9165ZM8.75008 34.9998C8.75008 41.0957 10.8297 46.7073 14.3151 51.164C16.7628 47.9495 19.9206 45.3445 23.5418 43.5524C27.1629 41.7603 31.1493 40.8297 35.1897 40.8332C39.1777 40.8294 43.114 41.7359 46.6986 43.4838C50.2833 45.2316 53.4217 47.7746 55.8747 50.919C58.4018 47.6045 60.1034 43.7359 60.8385 39.6332C61.5737 35.5306 61.3213 31.3118 60.1024 27.326C58.8834 23.3403 56.7328 19.7021 53.8286 16.7124C50.9244 13.7228 47.35 11.4678 43.4012 10.1338C39.4524 8.79988 35.2427 8.42542 31.1205 9.04142C26.9983 9.65743 23.082 11.2462 19.6957 13.6762C16.3093 16.1063 13.5504 19.3078 11.647 23.0158C9.74364 26.7239 8.75061 30.8318 8.75008 34.9998ZM35.0001 61.2498C28.9741 61.2589 23.13 59.1858 18.4567 55.3815C20.3378 52.6886 22.8415 50.49 25.7548 48.9727C28.6681 47.4553 31.9049 46.6642 35.1897 46.6665C38.4335 46.6639 41.6311 47.4353 44.517 48.9165C47.4028 50.3977 49.8937 52.5461 51.7826 55.1832C47.073 59.111 41.1326 61.2584 35.0001 61.2498Z" fill="#0D6B68"/>
</svg>
